<?xml version="1.0" encoding="UTF-8" standalone="no"?>
<!DOCTYPE svg PUBLIC "-//W3C//DTD SVG 1.1//EN"
 "http://www.w3.org/Graphics/SVG/1.1/DTD/svg11.dtd">
<!-- Generated by graphviz version 2.50.0 (20211204.2007)
 -->
<!-- Title: graphname Pages: 1 -->
<svg width="184pt" height="404pt"
 viewBox="0.00 0.00 184.27 404.00" xmlns="http://www.w3.org/2000/svg" xmlns:xlink="http://www.w3.org/1999/xlink">
<g id="graph0" class="graph" transform="scale(1 1) rotate(0) translate(4 400)">
<title>graphname</title>
<polygon fill="white" stroke="transparent" points="-4,4 -4,-400 180.27,-400 180.27,4 -4,4"/>
<!-- dc -->
<g id="node1" class="node">
<title>dc</title>
<ellipse fill="none" stroke="red" cx="109" cy="-306" rx="27" ry="18"/>
<text text-anchor="middle" x="109" y="-302.3" font-family="Times,serif" font-size="14.00">dc</text>
</g>
<!-- end -->
<g id="node2" class="node">
<title>end</title>
<ellipse fill="none" stroke="red" cx="27" cy="-162" rx="27" ry="18"/>
<text text-anchor="middle" x="27" y="-158.3" font-family="Times,serif" font-size="14.00">end</text>
</g>
<!-- dc&#45;&#45;end -->
<g id="edge1" class="edge">
<title>dc&#45;&#45;end</title>
<path fill="none" stroke="black" d="M89.46,-293.57C75.21,-284.21 56.6,-269.64 46,-252 32.58,-229.65 28.56,-199.14 27.41,-180.27"/>
</g>
<!-- HN -->
<g id="node3" class="node">
<title>HN</title>
<ellipse fill="none" stroke="green" cx="82" cy="-234" rx="27" ry="18"/>
<text text-anchor="middle" x="82" y="-230.3" font-family="Times,serif" font-size="14.00">HN</text>
</g>
<!-- dc&#45;&#45;HN -->
<g id="edge5" class="edge">
<title>dc&#45;&#45;HN</title>
<path fill="none" stroke="black" d="M102.6,-288.41C98.36,-277.41 92.81,-263.03 88.54,-251.96"/>
</g>
<!-- start -->
<g id="node4" class="node">
<title>start</title>
<ellipse fill="none" stroke="red" cx="137" cy="-162" rx="27" ry="18"/>
<text text-anchor="middle" x="137" y="-158.3" font-family="Times,serif" font-size="14.00">start</text>
</g>
<!-- dc&#45;&#45;start -->
<g id="edge4" class="edge">
<title>dc&#45;&#45;start</title>
<path fill="none" stroke="black" d="M112.38,-287.87C117.76,-260.58 128.22,-207.52 133.61,-180.19"/>
</g>
<!-- HN&#45;&#45;end -->
<g id="edge7" class="edge">
<title>HN&#45;&#45;end</title>
<path fill="none" stroke="black" d="M70.07,-217.81C60.84,-206.07 48.13,-189.89 38.91,-178.16"/>
</g>
<!-- HN&#45;&#45;start -->
<g id="edge2" class="edge">
<title>HN&#45;&#45;start</title>
<path fill="none" stroke="black" d="M93.93,-217.81C103.16,-206.07 115.87,-189.89 125.09,-178.16"/>
</g>
<!-- kj -->
<g id="node5" class="node">
<title>kj</title>
<ellipse fill="none" stroke="red" cx="137" cy="-90" rx="27" ry="18"/>
<text text-anchor="middle" x="137" y="-86.3" font-family="Times,serif" font-size="14.00">kj</text>
</g>
<!-- start&#45;&#45;kj -->
<g id="edge3" class="edge">
<title>start&#45;&#45;kj</title>
<path fill="none" stroke="black" d="M137,-143.7C137,-132.85 137,-118.92 137,-108.1"/>
</g>
<!-- kj&#45;&#45;dc -->
<g id="edge10" class="edge">
<title>kj&#45;&#45;dc</title>
<path fill="none" stroke="black" d="M150.75,-105.93C158.96,-115.9 168.62,-129.75 173,-144 177.7,-159.29 176.68,-164.43 173,-180 162.97,-222.47 135.68,-266.66 120.17,-289.4"/>
</g>
<!-- kj&#45;&#45;HN -->
<g id="edge9" class="edge">
<title>kj&#45;&#45;HN</title>
<path fill="none" stroke="black" d="M124.25,-106.3C116.44,-116.41 106.85,-130.29 101,-144 90.83,-167.83 85.89,-197.65 83.66,-216.01"/>
</g>
<!-- sa -->
<g id="node7" class="node">
<title>sa</title>
<ellipse fill="none" stroke="red" cx="137" cy="-18" rx="27" ry="18"/>
<text text-anchor="middle" x="137" y="-14.3" font-family="Times,serif" font-size="14.00">sa</text>
</g>
<!-- kj&#45;&#45;sa -->
<g id="edge8" class="edge">
<title>kj&#45;&#45;sa</title>
<path fill="none" stroke="black" d="M137,-71.7C137,-60.85 137,-46.92 137,-36.1"/>
</g>
<!-- LN -->
<g id="node6" class="node">
<title>LN</title>
<ellipse fill="none" stroke="green" cx="109" cy="-378" rx="27" ry="18"/>
<text text-anchor="middle" x="109" y="-374.3" font-family="Times,serif" font-size="14.00">LN</text>
</g>
<!-- LN&#45;&#45;dc -->
<g id="edge6" class="edge">
<title>LN&#45;&#45;dc</title>
<path fill="none" stroke="black" d="M109,-359.7C109,-348.85 109,-334.92 109,-324.1"/>
</g>
</g>
</svg>
